<svg width="34" height="23" viewBox="0 0 34 23" fill="none" xmlns="http://www.w3.org/2000/svg">
<path d="M16.9114 6.28027C16.7292 6.2842 16.5469 6.25679 16.3742 6.19861C16.1966 6.13876 16.0306 6.04677 15.8875 5.92532C15.7443 5.80377 15.6262 5.65446 15.544 5.48414C15.4618 5.31364 15.4182 5.12739 15.4182 4.93717C15.4182 4.93705 15.4182 4.93693 15.4182 4.93681L15.9182 4.93717L16.9114 6.28027ZM16.9114 6.28027C17.0936 6.2842 17.2759 6.25679 17.4485 6.19861C17.6262 6.13876 17.7921 6.04677 17.9352 5.92532C18.0785 5.80377 18.1966 5.65446 18.2787 5.48414C18.3611 5.31354 18.4047 5.12716 18.4045 4.93681M16.9114 6.28027L18.4045 4.93681M18.4045 4.93681C18.4045 4.93693 18.4045 4.93705 18.4045 4.93717H17.9045L18.4045 4.93681ZM16.384 2.40838V0.5H17.4388V2.40838V2.76748L17.7791 2.88218C18.3957 3.09002 18.892 3.47965 19.1912 3.96517L19.3605 4.23998L19.6807 4.19879L26.6694 3.29974H26.8342C26.9399 3.30403 27.0388 3.33316 27.1202 3.37993C27.2006 3.42618 27.2573 3.48554 27.2915 3.54585L32.8505 14.5184C32.8705 14.5877 32.8816 14.6581 32.884 14.7285C32.8818 16.1119 32.2562 17.4535 31.118 18.4541C29.9757 19.4583 28.4141 20.0314 26.7744 20.0314C25.1347 20.0314 23.5731 19.4583 22.4308 18.4541C21.2906 17.4518 20.6648 16.1072 20.6648 14.7212H20.6649L20.6648 14.7134C20.6641 14.6703 20.675 14.6244 20.7012 14.5788L20.7076 14.5676L20.7134 14.5562L25.5422 5.04306L25.9693 4.20166L25.0332 4.32075L19.8277 4.98306L19.4882 5.02626L19.4056 5.35844C19.2884 5.83003 18.9875 6.26638 18.5351 6.58636C18.0818 6.90696 17.509 7.08669 16.9116 7.08639V7.08634L16.905 7.08643C16.4377 7.09239 15.9807 6.9849 15.5848 6.77967C15.1891 6.57454 14.8743 6.28227 14.6675 5.94192L14.4971 5.66158L14.1721 5.70622L13.0788 5.85639L8.80065 6.39794L8.0967 6.48705L8.41744 7.11999L13.4517 17.0545L13.4586 17.0683L13.4664 17.0815C13.4891 17.1202 13.4994 17.1588 13.5004 17.1948C13.4989 18.5791 12.8733 19.9216 11.7344 20.9227C10.5921 21.9268 9.03053 22.5 7.39084 22.5C5.75116 22.5 4.18956 21.9268 3.04727 20.9227C1.91073 19.9236 1.2853 18.5845 1.28127 17.2032C1.28516 17.1412 1.29608 17.0793 1.31411 17.0182L6.81529 6.13012C6.85789 6.08777 6.88804 6.04293 6.90944 6.00082L6.94929 5.95411L6.96201 5.93921L6.98113 5.9266L7.11811 5.83629L7.12987 5.82853H7.13372L7.21423 5.80022L7.33499 5.75776L13.9942 4.9215L14.343 4.87769L14.4199 4.53463C14.5005 4.17447 14.6864 3.83143 14.9678 3.54068C15.2496 3.2495 15.6173 3.02127 16.039 2.88373L16.384 2.77123V2.40838ZM7.8374 8.1743L7.39276 7.29148L6.94506 8.17276L2.93821 16.0602L2.56917 16.7866H3.38399H11.3634H12.1751L11.81 16.0617L7.8374 8.1743ZM2.93878 17.5929H2.28556L2.45613 18.2235C2.72768 19.2273 3.37178 20.1079 4.26773 20.7319C5.16289 21.3553 6.26259 21.691 7.38964 21.6937L7.39273 21.6937C8.5158 21.6895 9.61092 21.3523 10.5005 20.728C11.3908 20.1031 12.0282 19.2225 12.2922 18.2203L12.4574 17.5929H11.8086H2.93878ZM30.7813 14.3181H31.5947L31.2274 13.5923L27.2205 5.67475L26.7725 4.78942L26.3275 5.67629L22.3549 13.5938L21.9915 14.3181H22.8018H30.7813ZM22.3566 15.1243H21.7079L21.8731 15.7517C22.137 16.7539 22.7744 17.6345 23.6648 18.2594C24.5543 18.8838 25.6494 19.2209 26.7725 19.2251L26.7756 19.2251C27.9027 19.2224 29.0024 18.8868 29.8975 18.2633C30.7935 17.6393 31.4376 16.7588 31.7091 15.7549L31.8797 15.1243H31.2265H22.3566Z" fill="#202020" stroke="#202020"/>
</svg>
